<?xml version="1.0" encoding="UTF-8" standalone="no"?>
<!DOCTYPE svg PUBLIC "-//W3C//DTD SVG 1.1//EN"
 "http://www.w3.org/Graphics/SVG/1.1/DTD/svg11.dtd">
<!-- Generated by graphviz version 2.40.1 (20161225.0304)
 -->
<!-- Title: %3 Pages: 1 -->
<svg width="710pt" height="223pt"
 viewBox="0.00 0.00 710.00 223.49" xmlns="http://www.w3.org/2000/svg" xmlns:xlink="http://www.w3.org/1999/xlink">
<g id="graph0" class="graph" transform="scale(1 1) rotate(0) translate(4 219.4937)">
<title>%3</title>
<polygon fill="#ffffff" stroke="transparent" points="-4,4 -4,-219.4937 706,-219.4937 706,4 -4,4"/>
<!-- 7124003717967008373 -->
<g id="node1" class="node">
<title>7124003717967008373</title>
<polygon fill="none" stroke="#000000" points="72,-215.4937 0,-215.4937 0,-179.4937 72,-179.4937 72,-215.4937"/>
<text text-anchor="middle" x="36" y="-193.7937" font-family="Times,serif" font-size="14.00" fill="#000000">(0, 0, 0)</text>
</g>
<!-- 5146096644793364071 -->
<g id="node2" class="node">
<title>5146096644793364071</title>
<ellipse fill="none" stroke="#000000" cx="37" cy="-107.7468" rx="35.9954" ry="35.9954"/>
<text text-anchor="middle" x="37" y="-104.0468" font-family="Times,serif" font-size="14.00" fill="#000000">array</text>
</g>
<!-- 5146096644793364071&#45;&gt;7124003717967008373 -->
<g id="edge1" class="edge">
<title>5146096644793364071&#45;&gt;7124003717967008373</title>
<path fill="none" stroke="#000000" d="M36.599,-143.7332C36.5038,-152.2779 36.4036,-161.2705 36.313,-169.4037"/>
<polygon fill="#000000" stroke="#000000" points="32.8123,-169.4521 36.2006,-179.4905 39.8119,-169.5302 32.8123,-169.4521"/>
</g>
<!-- &#45;8723559678721193697 -->
<g id="node3" class="node">
<title>&#45;8723559678721193697</title>
<polygon fill="none" stroke="#000000" points="377,-36 323,-36 323,0 377,0 377,-36"/>
</g>
<!-- &#45;8723559678721193697&#45;&gt;5146096644793364071 -->
<g id="edge2" class="edge">
<title>&#45;8723559678721193697&#45;&gt;5146096644793364071</title>
<path fill="none" stroke="#000000" d="M322.6989,-19.1782C272.5365,-22.254 163.3061,-33.2326 81,-72 77.7863,-73.5137 74.6041,-75.3112 71.5084,-77.2823"/>
<polygon fill="#000000" stroke="#000000" points="69.2382,-74.5994 63.0591,-83.2057 73.2565,-80.3312 69.2382,-74.5994"/>
</g>
<!-- &#45;5402390470553808154 -->
<g id="node5" class="node">
<title>&#45;5402390470553808154</title>
<ellipse fill="none" stroke="#000000" cx="126" cy="-107.7468" rx="35.9954" ry="35.9954"/>
<text text-anchor="middle" x="126" y="-104.0468" font-family="Times,serif" font-size="14.00" fill="#000000">array</text>
</g>
<!-- &#45;8723559678721193697&#45;&gt;&#45;5402390470553808154 -->
<g id="edge4" class="edge">
<title>&#45;8723559678721193697&#45;&gt;&#45;5402390470553808154</title>
<path fill="none" stroke="#000000" d="M322.6952,-22.8865C286.4955,-30.098 221.3288,-45.6607 171,-72 167.7126,-73.7204 164.4307,-75.6954 161.2221,-77.8145"/>
<polygon fill="#000000" stroke="#000000" points="159.0775,-75.0446 152.9464,-83.6852 163.1277,-80.7539 159.0775,-75.0446"/>
</g>
<!-- &#45;3933409639343432846 -->
<g id="node7" class="node">
<title>&#45;3933409639343432846</title>
<ellipse fill="none" stroke="#000000" cx="216" cy="-107.7468" rx="35.9954" ry="35.9954"/>
<text text-anchor="middle" x="216" y="-104.0468" font-family="Times,serif" font-size="14.00" fill="#000000">array</text>
</g>
<!-- &#45;8723559678721193697&#45;&gt;&#45;3933409639343432846 -->
<g id="edge6" class="edge">
<title>&#45;8723559678721193697&#45;&gt;&#45;3933409639343432846</title>
<path fill="none" stroke="#000000" d="M322.962,-33.2125C305.0275,-43.5906 281.1699,-57.9529 261,-72 257.9553,-74.1205 254.8455,-76.3792 251.7539,-78.6913"/>
<polygon fill="#000000" stroke="#000000" points="249.4842,-76.0209 243.6698,-84.8778 253.7383,-81.58 249.4842,-76.0209"/>
</g>
<!-- 2443929372192321011 -->
<g id="node9" class="node">
<title>2443929372192321011</title>
<ellipse fill="none" stroke="#000000" cx="306" cy="-107.7468" rx="35.9954" ry="35.9954"/>
<text text-anchor="middle" x="306" y="-104.0468" font-family="Times,serif" font-size="14.00" fill="#000000">array</text>
</g>
<!-- &#45;8723559678721193697&#45;&gt;2443929372192321011 -->
<g id="edge8" class="edge">
<title>&#45;8723559678721193697&#45;&gt;2443929372192321011</title>
<path fill="none" stroke="#000000" d="M341.0959,-36.1616C336.8231,-44.8769 331.5141,-55.7058 326.3295,-66.2808"/>
<polygon fill="#000000" stroke="#000000" points="323.094,-64.9295 321.8345,-75.4492 329.3793,-68.011 323.094,-64.9295"/>
</g>
<!-- &#45;5654225758261667310 -->
<g id="node11" class="node">
<title>&#45;5654225758261667310</title>
<ellipse fill="none" stroke="#000000" cx="395" cy="-107.7468" rx="35.9954" ry="35.9954"/>
<text text-anchor="middle" x="395" y="-104.0468" font-family="Times,serif" font-size="14.00" fill="#000000">array</text>
</g>
<!-- &#45;8723559678721193697&#45;&gt;&#45;5654225758261667310 -->
<g id="edge10" class="edge">
<title>&#45;8723559678721193697&#45;&gt;&#45;5654225758261667310</title>
<path fill="none" stroke="#000000" d="M359.1064,-36.1616C363.4764,-44.8769 368.9061,-55.7058 374.2085,-66.2808"/>
<polygon fill="#000000" stroke="#000000" points="371.1946,-68.0788 378.8056,-75.4492 377.4521,-64.9412 371.1946,-68.0788"/>
</g>
<!-- 6741984867501150227 -->
<g id="node13" class="node">
<title>6741984867501150227</title>
<ellipse fill="none" stroke="#000000" cx="484" cy="-107.7468" rx="35.9954" ry="35.9954"/>
<text text-anchor="middle" x="484" y="-104.0468" font-family="Times,serif" font-size="14.00" fill="#000000">array</text>
</g>
<!-- &#45;8723559678721193697&#45;&gt;6741984867501150227 -->
<g id="edge12" class="edge">
<title>&#45;8723559678721193697&#45;&gt;6741984867501150227</title>
<path fill="none" stroke="#000000" d="M377.0103,-32.8688C395.2198,-43.2138 419.5578,-57.6715 440,-72 442.8259,-73.9807 445.703,-76.0894 448.5644,-78.2539"/>
<polygon fill="#000000" stroke="#000000" points="446.4865,-81.0717 456.5311,-84.4417 450.7804,-75.5433 446.4865,-81.0717"/>
</g>
<!-- 2607295755894660999 -->
<g id="node15" class="node">
<title>2607295755894660999</title>
<ellipse fill="none" stroke="#000000" cx="574" cy="-107.7468" rx="35.9954" ry="35.9954"/>
<text text-anchor="middle" x="574" y="-104.0468" font-family="Times,serif" font-size="14.00" fill="#000000">array</text>
</g>
<!-- &#45;8723559678721193697&#45;&gt;2607295755894660999 -->
<g id="edge14" class="edge">
<title>&#45;8723559678721193697&#45;&gt;2607295755894660999</title>
<path fill="none" stroke="#000000" d="M377.3048,-22.8865C413.5045,-30.098 478.6712,-45.6607 529,-72 532.2874,-73.7204 535.5693,-75.6954 538.7779,-77.8145"/>
<polygon fill="#000000" stroke="#000000" points="536.8723,-80.7539 547.0536,-83.6852 540.9225,-75.0446 536.8723,-80.7539"/>
</g>
<!-- 1286266542284202374 -->
<g id="node17" class="node">
<title>1286266542284202374</title>
<ellipse fill="none" stroke="#000000" cx="665" cy="-107.7468" rx="35.9954" ry="35.9954"/>
<text text-anchor="middle" x="665" y="-104.0468" font-family="Times,serif" font-size="14.00" fill="#000000">array</text>
</g>
<!-- &#45;8723559678721193697&#45;&gt;1286266542284202374 -->
<g id="edge16" class="edge">
<title>&#45;8723559678721193697&#45;&gt;1286266542284202374</title>
<path fill="none" stroke="#000000" d="M377.2208,-19.351C427.2528,-22.7076 536.2791,-34.1258 619,-72 622.6209,-73.6578 626.2162,-75.6514 629.7081,-77.8381"/>
<polygon fill="#000000" stroke="#000000" points="627.8988,-80.8409 638.1306,-83.5906 631.8468,-75.0604 627.8988,-80.8409"/>
</g>
<!-- 7124003717968255948 -->
<g id="node4" class="node">
<title>7124003717968255948</title>
<polygon fill="none" stroke="#000000" points="162,-215.4937 90,-215.4937 90,-179.4937 162,-179.4937 162,-215.4937"/>
<text text-anchor="middle" x="126" y="-193.7937" font-family="Times,serif" font-size="14.00" fill="#000000">(0, 0, 1)</text>
</g>
<!-- &#45;5402390470553808154&#45;&gt;7124003717968255948 -->
<g id="edge3" class="edge">
<title>&#45;5402390470553808154&#45;&gt;7124003717968255948</title>
<path fill="none" stroke="#000000" d="M126,-143.7332C126,-152.2779 126,-161.2705 126,-169.4037"/>
<polygon fill="#000000" stroke="#000000" points="122.5001,-169.4905 126,-179.4905 129.5001,-169.4906 122.5001,-169.4905"/>
</g>
<!-- 7124005171458004848 -->
<g id="node6" class="node">
<title>7124005171458004848</title>
<polygon fill="none" stroke="#000000" points="252,-215.4937 180,-215.4937 180,-179.4937 252,-179.4937 252,-215.4937"/>
<text text-anchor="middle" x="216" y="-193.7937" font-family="Times,serif" font-size="14.00" fill="#000000">(0, 1, 0)</text>
</g>
<!-- &#45;3933409639343432846&#45;&gt;7124005171458004848 -->
<g id="edge5" class="edge">
<title>&#45;3933409639343432846&#45;&gt;7124005171458004848</title>
<path fill="none" stroke="#000000" d="M216,-143.7332C216,-152.2779 216,-161.2705 216,-169.4037"/>
<polygon fill="#000000" stroke="#000000" points="212.5001,-169.4905 216,-179.4905 219.5001,-169.4906 212.5001,-169.4905"/>
</g>
<!-- 7124005171456757273 -->
<g id="node8" class="node">
<title>7124005171456757273</title>
<polygon fill="none" stroke="#000000" points="342,-215.4937 270,-215.4937 270,-179.4937 342,-179.4937 342,-215.4937"/>
<text text-anchor="middle" x="306" y="-193.7937" font-family="Times,serif" font-size="14.00" fill="#000000">(0, 1, 1)</text>
</g>
<!-- 2443929372192321011&#45;&gt;7124005171456757273 -->
<g id="edge7" class="edge">
<title>2443929372192321011&#45;&gt;7124005171456757273</title>
<path fill="none" stroke="#000000" d="M306,-143.7332C306,-152.2779 306,-161.2705 306,-169.4037"/>
<polygon fill="#000000" stroke="#000000" points="302.5001,-169.4905 306,-179.4905 309.5001,-169.4906 302.5001,-169.4905"/>
</g>
<!-- 8697449872890093648 -->
<g id="node10" class="node">
<title>8697449872890093648</title>
<polygon fill="none" stroke="#000000" points="432,-215.4937 360,-215.4937 360,-179.4937 432,-179.4937 432,-215.4937"/>
<text text-anchor="middle" x="396" y="-193.7937" font-family="Times,serif" font-size="14.00" fill="#000000">(1, 0, 0)</text>
</g>
<!-- &#45;5654225758261667310&#45;&gt;8697449872890093648 -->
<g id="edge9" class="edge">
<title>&#45;5654225758261667310&#45;&gt;8697449872890093648</title>
<path fill="none" stroke="#000000" d="M395.401,-143.7332C395.4962,-152.2779 395.5964,-161.2705 395.687,-169.4037"/>
<polygon fill="#000000" stroke="#000000" points="392.1881,-169.5302 395.7994,-179.4905 399.1877,-169.4521 392.1881,-169.5302"/>
</g>
<!-- 8697449872888846073 -->
<g id="node12" class="node">
<title>8697449872888846073</title>
<polygon fill="none" stroke="#000000" points="522,-215.4937 450,-215.4937 450,-179.4937 522,-179.4937 522,-215.4937"/>
<text text-anchor="middle" x="486" y="-193.7937" font-family="Times,serif" font-size="14.00" fill="#000000">(1, 0, 1)</text>
</g>
<!-- 6741984867501150227&#45;&gt;8697449872888846073 -->
<g id="edge11" class="edge">
<title>6741984867501150227&#45;&gt;8697449872888846073</title>
<path fill="none" stroke="#000000" d="M484.802,-143.7332C484.9924,-152.2779 485.1928,-161.2705 485.374,-169.4037"/>
<polygon fill="#000000" stroke="#000000" points="481.8768,-169.571 485.5988,-179.4905 488.875,-169.415 481.8768,-169.571"/>
</g>
<!-- 8697448419399097173 -->
<g id="node14" class="node">
<title>8697448419399097173</title>
<polygon fill="none" stroke="#000000" points="612,-215.4937 540,-215.4937 540,-179.4937 612,-179.4937 612,-215.4937"/>
<text text-anchor="middle" x="576" y="-193.7937" font-family="Times,serif" font-size="14.00" fill="#000000">(1, 1, 0)</text>
</g>
<!-- 2607295755894660999&#45;&gt;8697448419399097173 -->
<g id="edge13" class="edge">
<title>2607295755894660999&#45;&gt;8697448419399097173</title>
<path fill="none" stroke="#000000" d="M574.802,-143.7332C574.9924,-152.2779 575.1928,-161.2705 575.374,-169.4037"/>
<polygon fill="#000000" stroke="#000000" points="571.8768,-169.571 575.5988,-179.4905 578.875,-169.415 571.8768,-169.571"/>
</g>
<!-- 8697448419400344748 -->
<g id="node16" class="node">
<title>8697448419400344748</title>
<polygon fill="none" stroke="#000000" points="702,-215.4937 630,-215.4937 630,-179.4937 702,-179.4937 702,-215.4937"/>
<text text-anchor="middle" x="666" y="-193.7937" font-family="Times,serif" font-size="14.00" fill="#000000">(1, 1, 1)</text>
</g>
<!-- 1286266542284202374&#45;&gt;8697448419400344748 -->
<g id="edge15" class="edge">
<title>1286266542284202374&#45;&gt;8697448419400344748</title>
<path fill="none" stroke="#000000" d="M665.401,-143.7332C665.4962,-152.2779 665.5964,-161.2705 665.687,-169.4037"/>
<polygon fill="#000000" stroke="#000000" points="662.1881,-169.5302 665.7994,-179.4905 669.1877,-169.4521 662.1881,-169.5302"/>
</g>
</g>
</svg>
