<?xml version="1.0" encoding="UTF-8" standalone="no"?>
<!DOCTYPE svg PUBLIC "-//W3C//DTD SVG 1.1//EN"
 "http://www.w3.org/Graphics/SVG/1.1/DTD/svg11.dtd">
<!-- Generated by graphviz version 2.40.1 (20161225.0304)
 -->
<!-- Title: %3 Pages: 1 -->
<svg width="782pt" height="44pt"
 viewBox="0.00 0.00 782.00 44.00" xmlns="http://www.w3.org/2000/svg" xmlns:xlink="http://www.w3.org/1999/xlink">
<g id="graph0" class="graph" transform="scale(1 1) rotate(0) translate(4 40)">
<title>%3</title>
<polygon fill="#ffffff" stroke="transparent" points="-4,4 -4,-40 778,-40 778,4 -4,4"/>
<!-- 330878534404086130 -->
<g id="node1" class="node">
<title>330878534404086130</title>
<polygon fill="none" stroke="#000000" points="72,-36 0,-36 0,0 72,0 72,-36"/>
<text text-anchor="middle" x="36" y="-14.3" font-family="Times,serif" font-size="14.00" fill="#000000">(1, 0, 0)</text>
</g>
<!-- 330878534402838555 -->
<g id="node2" class="node">
<title>330878534402838555</title>
<polygon fill="none" stroke="#000000" points="162,-36 90,-36 90,0 162,0 162,-36"/>
<text text-anchor="middle" x="126" y="-14.3" font-family="Times,serif" font-size="14.00" fill="#000000">(1, 0, 1)</text>
</g>
<!-- &#45;1242567620517751570 -->
<g id="node3" class="node">
<title>&#45;1242567620517751570</title>
<polygon fill="none" stroke="#000000" points="252,-36 180,-36 180,0 252,0 252,-36"/>
<text text-anchor="middle" x="216" y="-14.3" font-family="Times,serif" font-size="14.00" fill="#000000">(0, 0, 1)</text>
</g>
<!-- &#45;1242567620518999145 -->
<g id="node4" class="node">
<title>&#45;1242567620518999145</title>
<polygon fill="none" stroke="#000000" points="342,-36 270,-36 270,0 342,0 342,-36"/>
<text text-anchor="middle" x="306" y="-14.3" font-family="Times,serif" font-size="14.00" fill="#000000">(0, 0, 0)</text>
</g>
<!-- 8697449872890093648 -->
<g id="node5" class="node">
<title>8697449872890093648</title>
<polygon fill="none" stroke="#000000" points="432,-36 360,-36 360,0 432,0 432,-36"/>
<text text-anchor="middle" x="396" y="-14.3" font-family="Times,serif" font-size="14.00" fill="#000000">(1, 0, 0)</text>
</g>
<!-- 8697449872888846073 -->
<g id="node6" class="node">
<title>8697449872888846073</title>
<polygon fill="none" stroke="#000000" points="522,-36 450,-36 450,0 522,0 522,-36"/>
<text text-anchor="middle" x="486" y="-14.3" font-family="Times,serif" font-size="14.00" fill="#000000">(1, 0, 1)</text>
</g>
<!-- 7124003717968255948 -->
<g id="node7" class="node">
<title>7124003717968255948</title>
<polygon fill="none" stroke="#000000" points="612,-36 540,-36 540,0 612,0 612,-36"/>
<text text-anchor="middle" x="576" y="-14.3" font-family="Times,serif" font-size="14.00" fill="#000000">(0, 0, 1)</text>
</g>
<!-- 7124003717967008373 -->
<g id="node8" class="node">
<title>7124003717967008373</title>
<polygon fill="none" stroke="#000000" points="702,-36 630,-36 630,0 702,0 702,-36"/>
<text text-anchor="middle" x="666" y="-14.3" font-family="Times,serif" font-size="14.00" fill="#000000">(0, 0, 0)</text>
</g>
<!-- &#45;8723559678721193697 -->
<g id="node9" class="node">
<title>&#45;8723559678721193697</title>
<polygon fill="none" stroke="#000000" points="774,-36 720,-36 720,0 774,0 774,-36"/>
</g>
</g>
</svg>
